<?xml version="1.0" encoding="UTF-8" standalone="no"?>
<!DOCTYPE svg PUBLIC "-//W3C//DTD SVG 1.1//EN" "http://www.w3.org/Graphics/SVG/1.1/DTD/svg11.dtd">
<svg version="1.1" xmlns="http://www.w3.org/2000/svg" stroke="#000000" xmlns:xlink="http://www.w3.org/1999/xlink" preserveAspectRatio="xMidYMid meet" viewBox="0 0 640 640" width="640" height="640"><defs><path d="M479.5 217.33C479.5 313.91 401.09 392.33 304.5 392.33C207.91 392.33 129.5 313.91 129.5 217.33C129.5 120.74 207.91 42.33 304.5 42.33C401.09 42.33 479.5 120.74 479.5 217.33Z" id="b1SVoRP9jt"></path><path d="M224.99 423L144.98 262.98L305 262.98L465.02 262.98L385.02 423L305 583.02L224.99 423Z" id="g49mrJUug"></path><path d="M351.24 156.21L458 172.53L380.75 251.7L398.98 363.5L303.5 310.71L208.02 363.5L226.25 251.7L149 172.53L255.76 156.21L303.5 54.5L351.24 156.21Z" id="c5nBY9SqvP"></path></defs><g><g><g><use xlink:href="#b1SVoRP9jt" opacity="1" fill="#ffff00" fill-opacity="1"></use><g><use xlink:href="#b1SVoRP9jt" opacity="1" fill-opacity="0" stroke="#000000" stroke-width="1" stroke-opacity="1"></use></g><g><filter id="shadow12407299" x="120.5" y="33.33" width="369" height="369" filterUnits="userSpaceOnUse" primitiveUnits="userSpaceOnUse"><feFlood></feFlood><feComposite in2="SourceAlpha" operator="out"></feComposite><feGaussianBlur stdDeviation="1"></feGaussianBlur><feOffset dx="1" dy="1" result="afterOffset"></feOffset><feFlood flood-color="#000000" flood-opacity="0.8"></feFlood><feComposite in2="afterOffset" operator="in"></feComposite><feMorphology operator="dilate" radius="1"></feMorphology><feComposite in2="SourceAlpha" operator="in"></feComposite></filter><path d="M479.5 217.33C479.5 313.91 401.09 392.33 304.5 392.33C207.91 392.33 129.5 313.91 129.5 217.33C129.5 120.74 207.91 42.33 304.5 42.33C401.09 42.33 479.5 120.74 479.5 217.33Z" id="jptFJ4vIy" fill="white" fill-opacity="1" filter="url(#shadow12407299)"></path></g></g><g><use xlink:href="#g49mrJUug" opacity="1" fill="#ffff00" fill-opacity="1"></use></g><g><use xlink:href="#c5nBY9SqvP" opacity="1" fill="#000000" fill-opacity="1"></use></g></g></g></svg>