<?xml version="1.0" encoding="utf-8"?>
<!-- Generator: Adobe Illustrator 24.1.1, SVG Export Plug-In . SVG Version: 6.00 Build 0)  -->
<svg version="1.1" id="Layer_1" xmlns="http://www.w3.org/2000/svg" xmlns:xlink="http://www.w3.org/1999/xlink" x="0px" y="0px"
	 viewBox="0 0 660 660" style="enable-background:new 0 0 660 660;" xml:space="preserve">
<style type="text/css">
	.st0{fill:#FFFFFF;}
	.st1{fill:#E83338;}
</style>
<g>
	<g>
		<circle class="st0" cx="330.4" cy="330.4" r="329.6"/>
		<path fill="currentColor" d="M195.9,28.9C237,10.6,282,0.7,327,0.5c62.6-1,125.4,16.7,178.4,50.1c58.8,36.7,105.5,92.4,131.2,156.8
			c13.9,34.4,21.6,71.2,23.4,108.2v29.7c-1.9,40.1-11,79.9-27,116.7c-28.1,64.8-77.6,119.9-139,154.9c-45.7,26.3-97.9,41-150.5,43.2
			h-26.7c-54.1-2.3-107.6-17.9-154.1-45.6c-61.2-36-110.1-92.2-137.1-157.9c-29.7-71.3-33-153.1-9.5-226.7
			c15.4-48.6,42.4-93.4,78.1-129.9C123.1,70.2,157.8,45.9,195.9,28.9z M223.9,114.8c-56.9,27-97.8,91.4-92.8,154.1
			c102.3-11.4,208.8-23.4,311-34.8c-5.1-32.4-21.2-62.8-44-86.3c-21-21.8-48.3-37.7-78-44.1C288,96.8,253.6,100.8,223.9,114.8z
			 M499,240.2c0.8,10.3,1.7,20.6,2.7,31c6.4,2.8,13.5,4.2,20.4,2.9c7.6-1.3,14.4-5.7,19.8-11.2c8-8,17.7-15.3,29.2-16.8
			c11.3-1.3,22.7-0.3,34-0.5c-17.7-12.5-39.2-20.2-61-19.8C528,225.9,512,230.9,499,240.2z M466.3,245.3c-5.8,2.1-10.5,8.2-9.7,14.6
			c1.3,6.8,7.6,12,14.4,12.6c6.4-0.2,11.7-5.6,13.6-11.5C486.6,251.3,475.6,241.6,466.3,245.3z M380.5,269.4
			c-28.9,15.2-57.1,31.9-85.9,47.3c-6.7,3.7-14,6.5-21.5,7.7c-12.6,2.2-25.8-0.5-37.1-6.4c-9.8-5.2-19.6-10.4-29.5-15.5
			c-3-1.6-6.1-2.9-9.4-3.5c-5.8-1.2-11.8,0.9-16.4,4.6c-8.3,6.6-17.2,12.3-26.3,17.7c-2.8,1.6-5.8,3.5-9.2,2.8
			c-2.6-1.1-3.7-4.1-4.8-6.5c-3.6-9-8.6-18.3-11.8-27.4c-1.7,4.6-1.9,9-2.8,13.9c-1.5,7.6-1.6,10.3-2.7,24.3
			c0.8,9.1,0.3,9.2,0.7,14.5c2.1,22.9,7.2,45.6,15.3,67.1c15.6,40.9,41,78.1,73.2,107.9c27.9,25.8,60.8,45.7,95.6,60.4
			c16.4,6.8,33,13.5,50.6,16.8c-7.2-13.5-15.5-26.4-22.2-40.1c-8.5-17.5-13.8-36.6-14.3-56.1c-0.5-18.9,3.9-37.9,12.2-54.8
			c7.2-15,16.9-28.7,27.8-41.2c12.9-15,27.8-28.2,41.3-42.6c12.4-13.2,23.4-28.1,29.7-45.2c5.9-15.7,7.7-32.5,7.9-49.1
			c-10.6,6.1-21.1,12.4-31.8,18.4c1.5-4.6,3.6-9,6.4-12.9c6.8-9.5,16.9-16,24.1-25.1C419.3,252.4,399,259,380.5,269.4z M275,276
			c-12.3,6-23.8,13.4-35.4,20.5c9.8,3.1,19.4,6.6,29.1,9.7c4.7,1.4,9.8,2.5,14.5,1c6.3-1.9,10.6-7.3,14.6-12.2
			c7.3-8.7,14.9-17.1,22.4-25.7C305,268.1,289,269.4,275,276z M465.8,288.8c2.3,10.2,8,19.7,16.4,26c10.3,7.9,23.1,11.8,35.9,13.1
			c18.1,1.8,36.1-4.2,51.4-13.6c-4.5-0.1-9-0.5-13.5-0.2c-13,0.7-26.5-0.4-38.5-5.6c-9.9-4.3-18.4-11.5-24.5-20.3
			c-1.7-2.6-5.1-3.4-8-2.8C478.4,286.2,472.1,287.6,465.8,288.8z M147.5,290.2c3,4,5.6,9.1,10.6,10.7c5.4-0.4,8.5-5.8,11.9-9.4
			C162.5,291,155,290.6,147.5,290.2z"/>
	</g>
</g>
</svg>
