<?xml version="1.0" encoding="UTF-8" standalone="no"?>
<!DOCTYPE svg PUBLIC "-//W3C//DTD SVG 1.1//EN" "http://www.w3.org/Graphics/SVG/1.1/DTD/svg11.dtd">
<svg version="1.1" xmlns="http://www.w3.org/2000/svg" xmlns:xlink="http://www.w3.org/1999/xlink" preserveAspectRatio="xMidYMid meet" viewBox="0 0 640 640" width="640" height="640"><defs><path d="M26.91 217.71C158.62 203.03 295.73 187.58 427.31 172.91C420.74 131.19 400.02 92.05 370.66 61.8C343.63 33.73 308.48 13.26 270.24 5.02C228.91 -3.86 184.62 1.29 146.39 19.31C73.13 54.07 20.47 136.99 26.91 217.71Z" id="ajaKD6vm"></path><clipPath id="clipc2534oQ5W7"><use xlink:href="#ajaKD6vm" opacity="1"></use></clipPath><path d="M26.91 217.71C158.62 203.03 295.73 187.58 427.31 172.91C420.74 131.19 400.02 92.05 370.66 61.8C343.63 33.73 308.48 13.26 270.24 5.02C228.91 -3.86 184.62 1.29 146.39 19.31C73.13 54.07 20.47 136.99 26.91 217.71Z" id="b2hGu08EHy"></path><clipPath id="cliph8evPug3Y"><use xlink:href="#b2hGu08EHy" opacity="1"></use></clipPath><path d="M61.67 258.91C68.62 258.39 72.61 251.44 76.99 246.81C67.33 246.16 57.68 245.65 48.02 245.13C51.88 250.28 55.23 256.85 61.67 258.91Z" id="e6nif4G0c"></path><clipPath id="clipf5DtQnHJTD"><use xlink:href="#e6nif4G0c" opacity="1"></use></clipPath><path d="M270.37 218.23C250.8 216.68 230.2 218.35 212.17 226.85C196.34 234.58 181.53 244.1 166.6 253.24C179.22 257.24 191.58 261.74 204.06 265.73C210.11 267.54 216.68 268.95 222.73 267.02C230.84 264.57 236.38 257.62 241.53 251.31C250.93 240.11 260.71 229.3 270.37 218.23Z" id="c2aX4tpjjt"></path><clipPath id="clipg4NDlvAUOF"><use xlink:href="#c2aX4tpjjt" opacity="1"></use></clipPath><path d="M58.85 256.19C68.44 255.44 73.95 245.45 80 238.8C66.66 237.87 53.34 237.13 40 236.39C45.33 243.79 49.96 253.23 58.85 256.19Z" id="aWVkozIor"></path><path d="M270.37 218.23C250.8 216.68 230.2 218.35 212.17 226.85C196.34 234.58 181.53 244.1 166.6 253.24C179.22 257.24 191.58 261.74 204.06 265.73C210.11 267.54 216.68 268.95 222.73 267.02C230.84 264.57 236.38 257.62 241.53 251.31C250.93 240.11 260.71 229.3 270.37 218.23Z" id="dBukYDiIU"></path><clipPath id="clipb2YmNcSte1"><use xlink:href="#dBukYDiIU" opacity="1"></use></clipPath><path d="M348 218.35C310.79 237.92 274.49 259.42 237.41 279.25C228.78 284.02 219.38 287.62 209.73 289.17C193.51 292 176.51 288.52 161.96 280.93C149.35 274.23 136.73 267.54 123.98 260.97C120.12 258.91 116.13 257.24 111.88 256.46C104.41 254.92 96.69 257.62 90.77 262.39C80.08 270.88 68.62 278.22 56.91 285.17C53.3 287.23 49.44 289.68 45.06 288.78C41.71 287.36 40.3 283.5 38.88 280.41C34.25 268.82 27.81 256.85 23.69 245.13C21.5 251.06 21.24 256.72 20.08 263.03C18.15 272.81 18.02 276.29 16.61 294.32C17.64 306.03 16.99 306.16 17.51 312.98C20.21 342.47 26.78 371.69 37.21 399.37C57.29 452.03 89.99 499.92 131.45 538.29C167.37 571.51 209.73 597.13 254.53 616.05C275.65 624.81 297.02 633.43 319.68 637.68C310.41 620.3 299.72 603.69 291.1 586.06C280.15 563.52 273.33 538.93 272.69 513.83C272.04 489.5 277.71 465.03 288.39 443.27C297.66 423.96 310.15 406.32 324.18 390.23C340.79 370.92 359.98 353.92 377.36 335.39C393.32 318.39 407.48 299.21 415.59 277.19C423.19 256.98 425.51 235.35 425.77 213.98C412.12 221.83 398.6 229.94 384.82 237.67C386.76 231.74 389.46 226.08 393.06 221.06C401.82 208.83 414.82 200.46 424.09 188.74C397.96 196.47 371.82 204.96 348 218.35Z" id="aaHMCQzz4"></path><clipPath id="clipc91aqRcqs"><use xlink:href="#aaHMCQzz4" opacity="1"></use></clipPath><path d="M348 218.35C310.79 237.92 274.49 259.42 237.41 279.25C228.78 284.02 219.38 287.62 209.73 289.17C193.51 292 176.51 288.52 161.96 280.93C149.35 274.23 136.73 267.54 123.98 260.97C120.12 258.91 116.13 257.24 111.88 256.46C104.41 254.92 96.69 257.62 90.77 262.39C80.08 270.88 68.62 278.22 56.91 285.17C53.3 287.23 49.44 289.68 45.06 288.78C41.71 287.36 40.3 283.5 38.88 280.41C34.25 268.82 27.81 256.85 23.69 245.13C21.5 251.06 21.24 256.72 20.08 263.03C18.15 272.81 18.02 276.29 16.61 294.32C17.64 306.03 16.99 306.16 17.51 312.98C20.21 342.47 26.78 371.69 37.21 399.37C57.29 452.03 89.99 499.92 131.45 538.29C167.37 571.51 209.73 597.13 254.53 616.05C275.65 624.81 297.02 633.43 319.68 637.68C310.41 620.3 299.72 603.69 291.1 586.06C280.15 563.52 273.33 538.93 272.69 513.83C272.04 489.5 277.71 465.03 288.39 443.27C297.66 423.96 310.15 406.32 324.18 390.23C340.79 370.92 359.98 353.92 377.36 335.39C393.32 318.39 407.48 299.21 415.59 277.19C423.19 256.98 425.51 235.35 425.77 213.98C412.12 221.83 398.6 229.94 384.82 237.67C386.76 231.74 389.46 226.08 393.06 221.06C401.82 208.83 414.82 200.46 424.09 188.74C397.96 196.47 371.82 204.96 348 218.35Z" id="h78k6kv0x"></path><clipPath id="clipa3Kvn5jq6x"><use xlink:href="#h78k6kv0x" opacity="1"></use></clipPath><path d="M530.31 224.41C540.09 222.73 548.85 217.07 555.8 209.99C566.1 199.69 578.59 190.29 593.39 188.36C607.94 186.68 622.62 187.97 637.17 187.71C614.38 171.62 586.7 161.71 558.63 162.22C537.9 162.35 517.3 168.79 500.57 180.76C501.6 194.02 502.76 207.28 504.04 220.67C512.28 224.28 521.42 226.08 530.31 224.41Z" id="b2ADTWO9ur"></path><clipPath id="clipb95oOqBMb"><use xlink:href="#b2ADTWO9ur" opacity="1"></use></clipPath><path d="M530.31 224.41C540.09 222.73 548.85 217.07 555.8 209.99C566.1 199.69 578.59 190.29 593.39 188.36C607.94 186.68 622.62 187.97 637.17 187.71C614.38 171.62 586.7 161.71 558.63 162.22C537.9 162.35 517.3 168.79 500.57 180.76C501.6 194.02 502.76 207.28 504.04 220.67C512.28 224.28 521.42 226.08 530.31 224.41Z" id="dD9U0w2hU"></path><clipPath id="clipeioevYFDy"><use xlink:href="#dD9U0w2hU" opacity="1"></use></clipPath><path d="M445.98 206.12C447.65 214.88 455.76 221.57 464.52 222.35C472.76 222.09 479.58 215.14 482.03 207.54C484.6 195.05 470.44 182.56 458.47 187.33C451 190.03 444.95 197.88 445.98 206.12Z" id="b41kNjvoJ"></path><clipPath id="clipa2URh5nwh5"><use xlink:href="#b41kNjvoJ" opacity="1"></use></clipPath><path d="M445.98 206.12C447.65 214.88 455.76 221.57 464.52 222.35C472.76 222.09 479.58 215.14 482.03 207.54C484.6 195.05 470.44 182.56 458.47 187.33C451 190.03 444.95 197.88 445.98 206.12Z" id="bvSjSh8Hv"></path><clipPath id="clipc2vonEQJY4"><use xlink:href="#bvSjSh8Hv" opacity="1"></use></clipPath><path d="M492.84 242.56C490.65 239.21 486.28 238.18 482.54 238.95C474.05 239.98 465.93 241.79 457.82 243.33C460.78 256.46 468.12 268.69 478.94 276.81C492.2 286.98 508.68 292 525.16 293.67C548.46 295.99 571.64 288.26 591.33 276.16C585.54 276.03 579.75 275.52 573.95 275.9C557.22 276.81 539.84 275.39 524.39 268.69C511.64 263.16 500.7 253.89 492.84 242.56Z" id="d15MC0imUP"></path><clipPath id="clipg42vm7b7I"><use xlink:href="#d15MC0imUP" opacity="1"></use></clipPath><path d="M492.84 242.56C490.65 239.21 486.28 238.18 482.54 238.95C474.05 239.98 465.93 241.79 457.82 243.33C460.78 256.46 468.12 268.69 478.94 276.81C492.2 286.98 508.68 292 525.16 293.67C548.46 295.99 571.64 288.26 591.33 276.16C585.54 276.03 579.75 275.52 573.95 275.9C557.22 276.81 539.84 275.39 524.39 268.69C511.64 263.16 500.7 253.89 492.84 242.56Z" id="bqYkfR6t1"></path><clipPath id="clipcVcxndfx7"><use xlink:href="#bqYkfR6t1" opacity="1"></use></clipPath></defs><g><g><g><use xlink:href="#ajaKD6vm" opacity="1" fill-opacity="1"></use><g clip-path="url(#clipc2534oQ5W7)"><use xlink:href="#ajaKD6vm" opacity="1" fill-opacity="0" stroke="#000000" stroke-width="30" stroke-opacity="1"></use></g></g><g><use xlink:href="#b2hGu08EHy" opacity="1" fill-opacity="1"></use><g clip-path="url(#cliph8evPug3Y)"><use xlink:href="#b2hGu08EHy" opacity="1" fill-opacity="0" stroke="#000000" stroke-width="30" stroke-opacity="1"></use></g></g><g><use xlink:href="#e6nif4G0c" opacity="1" fill-opacity="1"></use><g clip-path="url(#clipf5DtQnHJTD)"><use xlink:href="#e6nif4G0c" opacity="1" fill-opacity="0" stroke="#000000" stroke-width="30" stroke-opacity="1"></use></g></g><g><use xlink:href="#c2aX4tpjjt" opacity="1" fill-opacity="1"></use><g clip-path="url(#clipg4NDlvAUOF)"><use xlink:href="#c2aX4tpjjt" opacity="1" fill-opacity="0" stroke="#000000" stroke-width="30" stroke-opacity="1"></use></g></g><g><use xlink:href="#aWVkozIor" opacity="1" fill="#ff0000" fill-opacity="1"></use><g><use xlink:href="#aWVkozIor" opacity="1" fill-opacity="0" stroke="#000000" stroke-width="10" stroke-opacity="1"></use></g></g><g><use xlink:href="#dBukYDiIU" opacity="1" fill-opacity="1"></use><g clip-path="url(#clipb2YmNcSte1)"><use xlink:href="#dBukYDiIU" opacity="1" fill-opacity="0" stroke="#000000" stroke-width="30" stroke-opacity="1"></use></g></g><g><use xlink:href="#aaHMCQzz4" opacity="1" fill-opacity="1"></use><g clip-path="url(#clipc91aqRcqs)"><use xlink:href="#aaHMCQzz4" opacity="1" fill-opacity="0" stroke="#000000" stroke-width="30" stroke-opacity="1"></use></g></g><g><use xlink:href="#h78k6kv0x" opacity="1" fill-opacity="1"></use><g clip-path="url(#clipa3Kvn5jq6x)"><use xlink:href="#h78k6kv0x" opacity="1" fill-opacity="0" stroke="#000000" stroke-width="30" stroke-opacity="1"></use></g></g><g><use xlink:href="#b2ADTWO9ur" opacity="1" fill-opacity="1"></use><g clip-path="url(#clipb95oOqBMb)"><use xlink:href="#b2ADTWO9ur" opacity="1" fill-opacity="0" stroke="#000000" stroke-width="30" stroke-opacity="1"></use></g></g><g><use xlink:href="#dD9U0w2hU" opacity="1" fill-opacity="1"></use><g clip-path="url(#clipeioevYFDy)"><use xlink:href="#dD9U0w2hU" opacity="1" fill-opacity="0" stroke="#000000" stroke-width="30" stroke-opacity="1"></use></g></g><g><use xlink:href="#b41kNjvoJ" opacity="1" fill-opacity="1"></use><g clip-path="url(#clipa2URh5nwh5)"><use xlink:href="#b41kNjvoJ" opacity="1" fill-opacity="0" stroke="#000000" stroke-width="30" stroke-opacity="1"></use></g></g><g><use xlink:href="#bvSjSh8Hv" opacity="1" fill-opacity="1"></use><g clip-path="url(#clipc2vonEQJY4)"><use xlink:href="#bvSjSh8Hv" opacity="1" fill-opacity="0" stroke="#000000" stroke-width="30" stroke-opacity="1"></use></g></g><g><use xlink:href="#d15MC0imUP" opacity="1" fill-opacity="1"></use><g clip-path="url(#clipg42vm7b7I)"><use xlink:href="#d15MC0imUP" opacity="1" fill-opacity="0" stroke="#000000" stroke-width="30" stroke-opacity="1"></use></g></g><g><use xlink:href="#bqYkfR6t1" opacity="1" fill-opacity="1"></use><g clip-path="url(#clipcVcxndfx7)"><use xlink:href="#bqYkfR6t1" opacity="1" fill-opacity="0" stroke="#000000" stroke-width="30" stroke-opacity="1"></use></g></g></g></g></svg>