<?xml version="1.0" encoding="utf-8"?>
<!-- Generator: Adobe Illustrator 24.1.1, SVG Export Plug-In . SVG Version: 6.00 Build 0)  -->
<svg version="1.1" id="Layer_1" xmlns="http://www.w3.org/2000/svg" xmlns:xlink="http://www.w3.org/1999/xlink" x="0px" y="0px"
	 viewBox="0 0 660 660" style="enable-background:new 0 0 660 660;" xml:space="preserve">
<style type="text/css">
	.st0{fill:#E83338;}
	.st1{fill:#FFFFFF;}
</style>
<g>
	<circle class="st0" cx="330.4" cy="330.4" r="329.6"/>
	<path class="st1" d="M320.1,103.7c-32.1-6.9-66.5-2.9-96.2,11.1c-56.9,27-97.8,91.4-92.8,154.1c102.3-11.4,208.8-23.4,311-34.8
		c-5.1-32.4-21.2-62.8-44-86.3C377.1,126,349.8,110.1,320.1,103.7z"/>
	<path class="st1" d="M283.2,307.2c6.3-1.9,10.6-7.3,14.6-12.2c7.3-8.7,14.9-17.1,22.4-25.7c-15.2-1.2-31.2,0.1-45.2,6.7
		c-12.3,6-23.8,13.4-35.4,20.5c9.8,3.1,19.4,6.6,29.1,9.7C273.4,307.6,278.5,308.7,283.2,307.2z"/>
	<path class="st1" d="M170,291.5c-7.5-0.5-15-0.9-22.5-1.3c3,4,5.6,9.1,10.6,10.7C163.5,300.5,166.6,295.1,170,291.5z"/>
	<path class="st1" d="M415.5,271.5c6.8-9.5,16.9-16,24.1-25.1c-20.3,6-40.6,12.6-59.1,23c-28.9,15.2-57.1,31.9-85.9,47.3
		c-6.7,3.7-14,6.5-21.5,7.7c-12.6,2.2-25.8-0.5-37.1-6.4c-9.8-5.2-19.6-10.4-29.5-15.5c-3-1.6-6.1-2.9-9.4-3.5
		c-5.8-1.2-11.8,0.9-16.4,4.6c-8.3,6.6-17.2,12.3-26.3,17.7c-2.8,1.6-5.8,3.5-9.2,2.8c-2.6-1.1-3.7-4.1-4.8-6.5
		c-3.6-9-8.6-18.3-11.8-27.4c-1.7,4.6-1.9,9-2.8,13.9c-1.5,7.6-1.6,10.3-2.7,24.3c0.8,9.1,0.3,9.2,0.7,14.5
		c2.1,22.9,7.2,45.6,15.3,67.1c15.6,40.9,41,78.1,73.2,107.9c27.9,25.8,60.8,45.7,95.6,60.4c16.4,6.8,33,13.5,50.6,16.8
		c-7.2-13.5-15.5-26.4-22.2-40.1c-8.5-17.5-13.8-36.6-14.3-56.1c-0.5-18.9,3.9-37.9,12.2-54.8c7.2-15,16.9-28.7,27.8-41.2
		c12.9-15,27.8-28.2,41.3-42.6c12.4-13.2,23.4-28.1,29.7-45.2c5.9-15.7,7.7-32.5,7.9-49.1c-10.6,6.1-21.1,12.4-31.8,18.4
		C410.6,279.8,412.7,275.4,415.5,271.5z"/>
	<path class="st1" d="M499,240.2c0.8,10.3,1.7,20.6,2.7,31c6.4,2.8,13.5,4.2,20.4,2.9c7.6-1.3,14.4-5.7,19.8-11.2
		c8-8,17.7-15.3,29.2-16.8c11.3-1.3,22.7-0.3,34-0.5c-17.7-12.5-39.2-20.2-61-19.8C528,225.9,512,230.9,499,240.2z"/>
	<path class="st1" d="M484.6,261c2-9.7-9-19.4-18.3-15.7c-5.8,2.1-10.5,8.2-9.7,14.6c1.3,6.8,7.6,12,14.4,12.6
		C477.4,272.3,482.7,266.9,484.6,261z"/>
	<path class="st1" d="M556,314.1c-13,0.7-26.5-0.4-38.5-5.6c-9.9-4.3-18.4-11.5-24.5-20.3c-1.7-2.6-5.1-3.4-8-2.8
		c-6.6,0.8-12.9,2.2-19.2,3.4c2.3,10.2,8,19.7,16.4,26c10.3,7.9,23.1,11.8,35.9,13.1c18.1,1.8,36.1-4.2,51.4-13.6
		C565,314.2,560.5,313.8,556,314.1z"/>
</g>
</svg>
